<?xml version="1.0" encoding="UTF-8" standalone="no"?>
<!-- Created with Inkscape (http://www.inkscape.org/) -->
<svg
   xmlns:dc="http://purl.org/dc/elements/1.1/"
   xmlns:cc="http://web.resource.org/cc/"
   xmlns:rdf="http://www.w3.org/1999/02/22-rdf-syntax-ns#"
   xmlns:svg="http://www.w3.org/2000/svg"
   xmlns="http://www.w3.org/2000/svg"
   xmlns:sodipodi="http://sodipodi.sourceforge.net/DTD/sodipodi-0.dtd"
   xmlns:inkscape="http://www.inkscape.org/namespaces/inkscape"
   width="870"
   height="754"
   id="svg4190"
   sodipodi:version="0.32"
   inkscape:version="0.45.1"
   version="1.0"
   sodipodi:docbase="C:\Documents and Settings\Jim\Desktop\Wikipedia\Dihedral Group"
   sodipodi:docname="Labeled Triangle Reflections.svg"
   inkscape:output_extension="org.inkscape.output.svg.inkscape">
  <sodipodi:namedview
     id="base"
     pagecolor="#ffffff"
     bordercolor="#666666"
     borderopacity="1.0"
     gridtolerance="10000"
     guidetolerance="10"
     objecttolerance="10"
     inkscape:pageopacity="0.0"
     inkscape:pageshadow="2"
     inkscape:zoom="0.35"
     inkscape:cx="375"
     inkscape:cy="373.39268"
     inkscape:document-units="px"
     inkscape:current-layer="layer1"
     inkscape:window-width="744"
     inkscape:window-height="573"
     inkscape:window-x="46"
     inkscape:window-y="92" />
  <defs
     id="defs4192" />
  <metadata
     id="metadata4195">
    <rdf:RDF>
      <cc:Work
         rdf:about="">
        <dc:format>image/svg+xml</dc:format>
        <dc:type
           rdf:resource="http://purl.org/dc/dcmitype/StillImage" />
      </cc:Work>
    </rdf:RDF>
  </metadata>
  <g
     inkscape:label="Layer 1"
     id="layer1"
     transform="translate(46.428567,-126.79076)"
     inkscape:groupmode="layer">
    <path
       style="fill:#ffffcc;fill-opacity:1;fill-rule:nonzero;stroke:#000000;stroke-width:8px;stroke-linecap:round;stroke-linejoin:miter;stroke-miterlimit:8"
       id="path22"
       d="M 637.57143,503.79076 L 263.57143,287.79076 L 263.57143,719.79079 L 637.57143,503.79076" />
    <path
       style="fill:none;fill-rule:nonzero;stroke:#333399;stroke-width:6px;stroke-linecap:butt;stroke-linejoin:round"
       id="path24"
       d="M -43.428567,503.79076 L 820.57143,503.79076 M 604.57143,129.79076 L 172.57143,877.79079 M 604.57143,877.79079 L 172.57143,129.79076" />
    <g
       id="g4225"
       transform="matrix(2,0,0,2,100.3676,160.44479)">
      <g
         style="font-style:normal;font-variant:normal;font-weight:normal;font-stretch:normal;letter-spacing:normal;word-spacing:normal;text-anchor:start;fill:none;fill-opacity:1;fill-rule:evenodd;stroke:#000000;stroke-linecap:butt;stroke-linejoin:miter;stroke-miterlimit:10.43299961;stroke-dasharray:none;stroke-dashoffset:0;stroke-opacity:1"
         id="g4227"
         xml:space="preserve"
         transform="matrix(1.0771429,0,0,-1.0771429,-188.5,652.5)"><path
           style="fill:#000000;stroke-width:0"
           id="path4229"
           d="M 488.13,440.62 L 488.13,440.64 L 488.13,440.65 L 488.13,440.67 L 488.12,440.69 L 488.12,440.7 L 488.12,440.72 L 488.11,440.74 L 488.11,440.76 L 488.1,440.78 L 488.09,440.8 L 488.08,440.82 L 488.07,440.84 L 488.06,440.86 L 488.05,440.88 L 488.04,440.9 L 488.02,440.92 L 488.01,440.94 L 487.99,440.96 L 487.97,440.98 L 487.95,441 L 487.93,441.02 L 487.91,441.03 L 487.88,441.05 L 487.86,441.06 L 487.83,441.07 L 487.81,441.08 L 487.8,441.08 L 487.78,441.09 L 487.77,441.09 L 487.75,441.1 L 487.73,441.1 L 487.72,441.11 L 487.7,441.11 L 487.68,441.11 L 487.66,441.11 L 487.64,441.11 L 487.62,441.12 L 487.6,441.12 L 487.58,441.12 C 487.33,441.12 487.28,441.07 486.68,440.37 L 484.29,437.53 C 483,439.87 480.41,441.12 477.17,441.12 C 470.84,441.12 464.87,435.39 464.87,429.36 C 464.87,425.33 467.51,423.04 470.05,422.29 L 475.38,420.89 C 477.22,420.45 479.96,419.7 479.96,415.61 C 479.96,411.13 475.88,406.45 470.99,406.45 C 467.8,406.45 462.28,407.54 462.28,413.72 C 462.28,414.92 462.53,416.11 462.57,416.41 C 462.63,416.61 462.68,416.66 462.68,416.76 C 462.68,417.26 462.33,417.31 462.08,417.31 C 461.83,417.31 461.73,417.26 461.58,417.11 C 461.38,416.91 458.59,405.55 458.59,405.4 C 458.59,405.1 458.84,404.9 459.14,404.9 C 459.39,404.9 459.44,404.95 460.04,405.65 L 462.48,408.49 C 464.62,405.6 468,404.9 470.89,404.9 C 477.67,404.9 483.55,411.53 483.55,417.71 C 483.55,421.14 481.85,422.84 481.11,423.54 C 479.96,424.68 479.21,424.88 474.78,426.02 C 473.68,426.32 471.89,426.82 471.44,426.92 C 470.1,427.37 468.4,428.81 468.4,431.45 C 468.4,435.49 472.39,439.72 477.12,439.72 C 481.25,439.72 484.29,437.58 484.29,432 C 484.29,430.41 484.09,429.51 484.09,429.21 C 484.09,429.16 484.09,428.71 484.69,428.71 C 485.19,428.71 485.24,428.86 485.44,429.71 L 488.13,440.62 z " /><path
           style="fill:#000000;stroke-width:0"
           id="path4231"
           d="M 503.99,410.13 L 503.99,410.83 L 503.97,411.51 L 503.94,412.17 L 503.9,412.81 L 503.84,413.43 L 503.76,414.02 L 503.67,414.6 L 503.56,415.16 L 503.44,415.71 L 503.29,416.24 L 503.12,416.75 L 502.93,417.25 L 502.72,417.74 L 502.48,418.22 L 502.22,418.69 L 502.08,418.93 L 501.93,419.16 C 500.86,420.76 498.69,422.15 495.9,422.15 L 495.9,421.18 C 497.79,421.18 499.6,420.03 500.23,418 C 500.79,416.12 500.82,413.61 500.82,410.58 C 500.82,408 500.82,405.41 500.37,403.22 C 499.67,400.05 497.3,399.28 495.9,399.28 L 495.9,399.28 C 494.3,399.28 492.17,400.22 491.47,403.08 C 490.98,405.14 490.98,408 490.98,410.58 C 490.98,413.12 490.98,415.77 491.51,417.69 C 492.24,420.45 494.47,421.18 495.9,421.18 L 495.9,422.15 C 487.81,422.15 487.81,412.63 487.81,410.13 C 487.81,407.61 487.81,398.3 495.9,398.3 C 503.99,398.3 503.99,407.61 503.99,410.13 z " /></g>    </g>
    <g
       id="g4253"
       transform="matrix(2,0,0,2,-11.967393,-216.60678)">
      <g
         style="font-style:normal;font-variant:normal;font-weight:normal;font-stretch:normal;letter-spacing:normal;word-spacing:normal;text-anchor:start;fill:none;fill-opacity:1;fill-rule:evenodd;stroke:#000000;stroke-linecap:butt;stroke-linejoin:miter;stroke-miterlimit:10.43299961;stroke-dasharray:none;stroke-dashoffset:0;stroke-opacity:1"
         id="g4255"
         xml:space="preserve"
         transform="matrix(1.0771429,0,0,-1.0771429,-188.5,652.5)"><path
           style="fill:#000000;stroke-width:0"
           id="path4257"
           d="M 488.13,440.62 L 488.13,440.64 L 488.13,440.65 L 488.13,440.67 L 488.12,440.69 L 488.12,440.7 L 488.12,440.72 L 488.11,440.74 L 488.11,440.76 L 488.1,440.78 L 488.09,440.8 L 488.08,440.82 L 488.07,440.84 L 488.06,440.86 L 488.05,440.88 L 488.04,440.9 L 488.02,440.92 L 488.01,440.94 L 487.99,440.96 L 487.97,440.98 L 487.95,441 L 487.93,441.02 L 487.91,441.03 L 487.88,441.05 L 487.86,441.06 L 487.83,441.07 L 487.81,441.08 L 487.8,441.08 L 487.78,441.09 L 487.77,441.09 L 487.75,441.1 L 487.73,441.1 L 487.72,441.11 L 487.7,441.11 L 487.68,441.11 L 487.66,441.11 L 487.64,441.11 L 487.62,441.12 L 487.6,441.12 L 487.58,441.12 C 487.33,441.12 487.28,441.07 486.68,440.37 L 484.29,437.53 C 483,439.87 480.41,441.12 477.17,441.12 C 470.84,441.12 464.87,435.39 464.87,429.36 C 464.87,425.33 467.51,423.04 470.05,422.29 L 475.38,420.89 C 477.22,420.45 479.96,419.7 479.96,415.61 C 479.96,411.13 475.88,406.45 470.99,406.45 C 467.8,406.45 462.28,407.54 462.28,413.72 C 462.28,414.92 462.53,416.11 462.57,416.41 C 462.63,416.61 462.68,416.66 462.68,416.76 C 462.68,417.26 462.33,417.31 462.08,417.31 C 461.83,417.31 461.73,417.26 461.58,417.11 C 461.38,416.91 458.59,405.55 458.59,405.4 C 458.59,405.1 458.84,404.9 459.14,404.9 C 459.39,404.9 459.44,404.95 460.04,405.65 L 462.48,408.49 C 464.62,405.6 468,404.9 470.89,404.9 C 477.67,404.9 483.55,411.53 483.55,417.71 C 483.55,421.14 481.85,422.84 481.11,423.54 C 479.96,424.68 479.21,424.88 474.78,426.02 C 473.68,426.32 471.89,426.82 471.44,426.92 C 470.1,427.37 468.4,428.81 468.4,431.45 C 468.4,435.49 472.39,439.72 477.12,439.72 C 481.25,439.72 484.29,437.58 484.29,432 C 484.29,430.41 484.09,429.51 484.09,429.21 C 484.09,429.16 484.09,428.71 484.69,428.71 C 485.19,428.71 485.24,428.86 485.44,429.71 L 488.13,440.62 z " /><path
           style="fill:#000000;stroke-width:0"
           id="path4259"
           d="M 497.68,421.18 L 497.68,421.22 L 497.68,421.26 L 497.68,421.3 L 497.68,421.34 L 497.68,421.38 L 497.68,421.42 L 497.68,421.45 L 497.68,421.49 L 497.67,421.52 L 497.67,421.55 L 497.67,421.59 L 497.67,421.62 L 497.66,421.64 L 497.66,421.67 L 497.66,421.7 L 497.65,421.73 L 497.65,421.75 L 497.65,421.77 L 497.63,421.82 L 497.62,421.86 L 497.61,421.9 L 497.59,421.93 L 497.57,421.96 L 497.55,421.99 L 497.52,422.02 L 497.5,422.04 L 497.47,422.06 L 497.43,422.08 L 497.4,422.09 L 497.36,422.1 L 497.31,422.12 L 497.26,422.12 L 497.24,422.13 L 497.21,422.13 L 497.18,422.14 L 497.16,422.14 L 497.13,422.14 L 497.1,422.14 L 497.06,422.14 L 497.03,422.15 L 497,422.15 L 496.96,422.15 L 496.93,422.15 L 496.89,422.15 L 496.85,422.15 L 496.81,422.15 L 496.77,422.15 L 496.73,422.15 L 496.68,422.15 L 496.64,422.15 C 494.4,419.96 491.23,419.92 489.8,419.92 L 489.8,418.67 C 490.64,418.67 492.94,418.67 494.86,419.64 L 494.86,401.86 C 494.86,400.71 494.86,400.25 491.37,400.25 L 490.04,400.25 L 490.04,399 C 490.67,399.04 494.96,399.14 496.25,399.14 C 497.33,399.14 501.73,399.04 502.49,399 L 502.49,400.25 L 501.17,400.25 C 497.68,400.25 497.68,400.71 497.68,401.86 L 497.68,421.18 z " /></g>    </g>
    <g
       id="g4289"
       transform="matrix(2,0,0,2,-375.14202,-214.8925)">
      <g
         id="g4291"
         transform="matrix(1.0771429,0,0,-1.0771429,-188.5,652.5)"
         style="font-style:normal;font-variant:normal;font-weight:normal;font-stretch:normal;letter-spacing:normal;word-spacing:normal;text-anchor:start;fill:none;fill-opacity:1;fill-rule:evenodd;stroke:#000000;stroke-linecap:butt;stroke-linejoin:miter;stroke-miterlimit:10.43299961;stroke-dasharray:none;stroke-dashoffset:0;stroke-opacity:1"
         xml:space="preserve"><path
           id="path4293"
           d="M 488.13,440.62 L 488.13,440.64 L 488.13,440.65 L 488.13,440.67 L 488.12,440.69 L 488.12,440.7 L 488.12,440.72 L 488.11,440.74 L 488.11,440.76 L 488.1,440.78 L 488.09,440.8 L 488.08,440.82 L 488.07,440.84 L 488.06,440.86 L 488.05,440.88 L 488.04,440.9 L 488.02,440.92 L 488.01,440.94 L 487.99,440.96 L 487.97,440.98 L 487.95,441 L 487.93,441.02 L 487.91,441.03 L 487.88,441.05 L 487.86,441.06 L 487.83,441.07 L 487.81,441.08 L 487.8,441.08 L 487.78,441.09 L 487.77,441.09 L 487.75,441.1 L 487.73,441.1 L 487.72,441.11 L 487.7,441.11 L 487.68,441.11 L 487.66,441.11 L 487.64,441.11 L 487.62,441.12 L 487.6,441.12 L 487.58,441.12 C 487.33,441.12 487.28,441.07 486.68,440.37 L 484.29,437.53 C 483,439.87 480.41,441.12 477.17,441.12 C 470.84,441.12 464.87,435.39 464.87,429.36 C 464.87,425.33 467.51,423.04 470.05,422.29 L 475.38,420.89 C 477.22,420.45 479.96,419.7 479.96,415.61 C 479.96,411.13 475.88,406.45 470.99,406.45 C 467.8,406.45 462.28,407.54 462.28,413.72 C 462.28,414.92 462.53,416.11 462.57,416.41 C 462.63,416.61 462.68,416.66 462.68,416.76 C 462.68,417.26 462.33,417.31 462.08,417.31 C 461.83,417.31 461.73,417.26 461.58,417.11 C 461.38,416.91 458.59,405.55 458.59,405.4 C 458.59,405.1 458.84,404.9 459.14,404.9 C 459.39,404.9 459.44,404.95 460.04,405.65 L 462.48,408.49 C 464.62,405.6 468,404.9 470.89,404.9 C 477.67,404.9 483.55,411.53 483.55,417.71 C 483.55,421.14 481.85,422.84 481.11,423.54 C 479.96,424.68 479.21,424.88 474.78,426.02 C 473.68,426.32 471.89,426.82 471.44,426.92 C 470.1,427.37 468.4,428.81 468.4,431.45 C 468.4,435.49 472.39,439.72 477.12,439.72 C 481.25,439.72 484.29,437.58 484.29,432 C 484.29,430.41 484.09,429.51 484.09,429.21 C 484.09,429.16 484.09,428.71 484.69,428.71 C 485.19,428.71 485.24,428.86 485.44,429.71 L 488.13,440.62 z "
           style="fill:#000000;stroke-width:0" /><path
           id="path4295"
           d="M 503.61,405.35 L 502.42,405.35 C 502.32,404.58 501.97,402.52 501.52,402.17 C 501.24,401.96 498.55,401.96 498.07,401.96 L 491.65,401.96 C 495.31,405.21 496.53,406.18 498.62,407.82 C 501.2,409.88 503.61,412.04 503.61,415.36 C 503.61,419.57 499.91,422.15 495.45,422.15 C 491.13,422.15 488.2,419.12 488.2,415.91 C 488.2,414.13 489.7,413.96 490.04,413.96 C 490.88,413.96 491.89,414.55 491.89,415.81 C 491.89,416.43 491.65,417.66 489.84,417.66 C 490.92,420.13 493.29,420.9 494.93,420.9 C 498.41,420.9 500.23,418.18 500.23,415.36 C 500.23,412.32 498.07,409.91 496.95,408.66 L 488.55,400.36 C 488.2,400.05 488.2,399.98 488.2,399 L 502.56,399 L 503.61,405.35 z "
           style="fill:#000000;stroke-width:0" /></g>    </g>
  </g>
</svg>
